<svg fill="#000000" height="40px" width="40px" version="1.1" id="Capa_1" xmlns="http://www.w3.org/2000/svg" xmlns:xlink="http://www.w3.org/1999/xlink"
	 viewBox="0 0 458 458" xml:space="preserve">
<g>
	<path d="M350.5,0h-27c-3.313,0-6,2.687-6,6v26h-21.98V6c0-3.313-2.687-6-6-6h-44.53c-3.313,0-6,2.687-6,6v26H217.01V6
		c0-3.313-2.687-6-6-6h-44.53c-3.313,0-6,2.687-6,6v26H138.5V6c0-3.313-2.687-6-6-6h-25c-3.313,0-6,2.687-6,6v94
		c0,3.313,2.687,6,6,6h21v346c0,3.313,2.687,6,6,6h189c3.313,0,6-2.687,6-6V106h21c3.313,0,6-2.687,6-6V6
		C356.5,2.687,353.813,0,350.5,0z M188.5,446h-24v-50c0-6.617,5.383-12,12-12s12,5.383,12,12V446z M317.5,446h-117v-50
		c0-13.233-10.767-24-24-24s-24,10.767-24,24v50h-12V106h177V446z M344.5,94h-21h-189h-21V12h13v26c0,3.313,2.687,6,6,6h33.979
		c3.313,0,6-2.687,6-6V12h32.53v26c0,3.313,2.687,6,6,6h33.979c3.313,0,6-2.687,6-6V12h32.53v26c0,3.313,2.687,6,6,6h33.98
		c3.313,0,6-2.687,6-6V12h15V94z"/>
	<path d="M165,202h26c3.313,0,6-2.687,6-6v-35c0-10.477-8.523-19-19-19s-19,8.523-19,19v35C159,199.313,161.687,202,165,202z
		 M171,161c0-3.859,3.141-7,7-7s7,3.141,7,7v29h-14V161z"/>
	<path d="M216,278h26c3.313,0,6-2.687,6-6v-35c0-10.477-8.523-19-19-19s-19,8.523-19,19v35C210,275.313,212.687,278,216,278z
		 M222,237c0-3.859,3.141-7,7-7s7,3.141,7,7v29h-14V237z"/>
	<path d="M267,354h26c3.313,0,6-2.687,6-6v-35c0-10.477-8.523-19-19-19s-19,8.523-19,19v35C261,351.313,263.687,354,267,354z
		 M273,313c0-3.859,3.141-7,7-7s7,3.141,7,7v29h-14V313z"/>
</g>
</svg>