<svg xmlns="http://www.w3.org/2000/svg" viewBox="0 0 870 272" width="150" height="70">
  <g fill="none" stroke="#fff" stroke-width="80"
  stroke-linecap="round"
  stroke-linejoin="round" transform="translate(0,272) scale(0.1,-0.1)">


  <path d="M1240 2305 c-232 -51 -560 -207 -763 -362 -159 -122 -356 -340 -423
-466 -33 -63 -38 -82 -42 -158 -4 -72 -1 -92 17 -126 42 -84 126 -113 269 -93
195 28 423 97 607 184 95 45 115 60 97 78 -7 7 -44 -5 -119 -40 -211 -98 -555
-191 -651 -177 -58 9 -101 50 -103 97 -7 165 48 284 214 455 156 161 335 290
549 393 329 159 616 217 670 136 16 -23 7 -88 -23 -171 -59 -162 -277 -585
-487 -944 l-88 -151 -170 -127 c-244 -183 -494 -436 -659 -668 -75 -104 -64
-165 29 -165 75 0 138 40 278 177 217 213 416 447 599 704 87 122 95 131 187
190 129 84 264 154 337 174 33 10 66 22 73 27 51 42 -71 34 -182 -11 -43 -17
-115 -53 -160 -79 l-81 -48 135 270 c238 475 325 738 279 839 -6 14 -30 35
-53 48 -36 21 -56 24 -156 26 -71 2 -140 -3 -180 -12z m-426 -1552 c-177 -238
-538 -633 -576 -633 -34 0 -18 39 59 142 89 119 378 414 472 482 35 25 65 46
68 46 3 0 -7 -17 -23 -37z" class="handwriting svg-elem-1" style="stroke-dasharray: 14466.1px; stroke-dashoffset: 14466.1px; animation-delay:0ms;"></path>

  <path d="M1820 1399 c-86 -40 -98 -53 -106 -108 -9 -59 -27 -95 -109 -211
-108 -151 -185 -268 -185 -280 0 -25 63 -8 132 37 93 60 231 121 381 167 84
27 117 42 117 53 0 24 -57 11 -263 -57 l-177 -58 41 51 c154 191 289 389 289
423 0 23 -51 16 -120 -17z" class="handwriting svg-elem-2" style="stroke-dasharray: 2613.56px; stroke-dashoffset: 2613.56px; animation-delay:400ms;"></path>

  <path d="M1978 1859 c-51 -26 -63 -51 -43 -89 16 -31 22 -34 49 -24 16 6 76
103 76 123 0 17 -41 12 -82 -10z" class="handwriting svg-elem-3" style="stroke-dasharray: 418.253px; stroke-dashoffset: 418.253px; animation-delay:800ms;"></path>

  <path d="M2675 1447 c-94 -35 -169 -83 -292 -184 -63 -52 -110 -86 -104 -76 5
10 45 72 89 138 44 66 76 124 72 129 -10 10 -90 -16 -154 -52 -47 -25 -50 -30
-61 -82 -6 -30 -21 -74 -33 -96 -29 -57 -134 -223 -199 -315 -79 -114 -69
-135 37 -78 40 21 62 40 74 65 25 54 116 173 174 228 123 118 280 214 393 241
87 20 89 20 89 -15 0 -46 28 -38 51 15 11 25 19 58 17 73 -3 25 -7 27 -48 29
-27 2 -69 -6 -105 -20z" class="handwriting svg-elem-4" style="stroke-dasharray: 3067.04px; stroke-dashoffset: 3067.04px; animation-delay:1200ms;"></path>

  <path d="M2556 1862 c-3 -5 7 -46 20 -93 14 -46 31 -102 37 -124 9 -31 17 -40
34 -40 14 0 84 49 178 124 139 112 170 141 148 141 -6 0 -171 -86 -241 -126
-32 -19 -33 -19 -44 1 -16 27 -109 125 -119 125 -4 0 -10 -4 -13 -8z" class="handwriting svg-elem-5" style="stroke-dasharray: 1233.99px; stroke-dashoffset: 1233.99px; animation-delay:1600ms"></path>

  <path d="M3000 1399 c-86 -40 -98 -53 -106 -108 -9 -59 -27 -95 -109 -211
-108 -151 -185 -268 -185 -280 0 -25 63 -8 132 37 93 60 231 121 381 167 84
27 117 42 117 53 0 24 -57 11 -263 -57 l-177 -58 41 51 c154 191 289 389 289
423 0 23 -51 16 -120 -17z" class="handwriting svg-elem-6" style="stroke-dasharray: 2613.56px; stroke-dashoffset: 2613.56px; animation-delay:2400ms"></path>

   <path d="M3344 1932 c-31 -21 -212 -242 -203 -248 18 -11 299 183 299 207 0
32 -67 61 -96 41z" class="handwriting svg-elem-7" style="stroke-dasharray: 809.72px; stroke-dashoffset: 809.72px; animation-delay:3000ms"></path>


  <path d="M5461 2164 l-50 -45 -61 12 c-77 15 -294 7 -410 -16 -266 -51 -536
-165 -782 -329 -157 -104 -258 -187 -376 -311 -160 -167 -234 -296 -251 -432
-25 -213 86 -379 307 -455 61 -21 84 -23 247 -23 252 1 389 30 695 150 209 82
477 216 712 355 l37 21 -31 -62 c-43 -86 -44 -146 -4 -188 88 -92 227 -78 441
45 102 59 145 91 145 110 0 22 -28 17 -80 -15 -26 -16 -101 -51 -166 -77 -97
-39 -131 -48 -184 -48 -61 -1 -65 0 -78 27 -19 39 -2 104 46 179 l37 58 60 0
c151 1 413 151 460 265 24 55 19 100 -11 124 -37 29 -77 26 -201 -15 l-108
-36 -107 -106 c-59 -58 -119 -122 -135 -143 -15 -21 -34 -39 -41 -39 -7 0 -88
-41 -180 -91 -178 -96 -399 -206 -485 -240 -89 -36 -418 -139 -507 -159 -199
-44 -470 -51 -587 -16 -72 23 -143 73 -167 121 -45 88 -31 217 41 359 149 297
410 533 822 745 238 122 441 187 622 198 90 5 192 -7 203 -26 3 -4 -27 -43
-66 -86 -166 -188 -265 -388 -223 -451 61 -93 355 95 431 275 37 87 35 204 -5
259 l-18 25 55 52 c34 31 53 56 48 63 -14 23 -44 12 -95 -34z m-45 -271 c-11
-128 -143 -303 -228 -303 -24 0 -28 4 -28 30 0 75 73 221 169 338 l55 66 18
-39 c13 -29 17 -55 14 -92z m634 -448 c37 -45 -77 -196 -185 -246 -43 -20
-111 -25 -134 -10 -12 8 -6 20 28 65 24 31 71 82 105 114 90 84 157 112 186
77z" class="svg-elem-8 handwriting" style="stroke-dasharray: 16206.3px; stroke-dashoffset: 16206.3px; animation-delay:4000ms"></path>

  <path d="M5373 2688 c8 -33 71 -201 80 -215 5 -7 14 -13 21 -13 13 0 383 215
406 236 29 28 -27 15 -178 -41 -82 -30 -154 -55 -159 -55 -5 0 -20 11 -33 25
-29 31 -112 85 -130 85 -8 0 -10 -8 -7 -22z" class="svg-elem-9 handwriting" style="stroke-dasharray: 1329.66px; stroke-dashoffset: 1329.66px; animation-delay:4400ms"></path>


 <path d="M6684 1540 c-201 -52 -356 -180 -384 -316 -14 -67 -4 -92 80 -189 80
-92 78 -104 -20 -127 -41 -10 -126 -22 -188 -26 -118 -9 -151 -22 -132 -52 8
-13 42 -15 207 -15 227 0 291 13 318 64 8 16 25 36 39 45 43 28 34 47 -21 44
l-46 -3 -60 97 c-74 121 -82 163 -43 242 30 60 69 95 154 134 47 21 72 26 142
26 47 0 108 -3 135 -8 44 -7 54 -5 78 14 33 26 35 53 5 74 -32 22 -173 20
-264 -4z" class="svg-elem-10 handwriting" style="stroke-dasharray: 3345.72px; stroke-dashoffset: 3345.72px; animation-delay:5400ms"></path>

  <path d="M6743 1918 c20 -90 61 -225 72 -237 17 -18 22 -15 202 130 168 135
162 129 137 129 -10 0 -76 -31 -144 -70 l-125 -69 -15 22 c-8 12 -35 43 -59
70 -48 51 -77 62 -68 25z" class="svg-elem-11 handwriting" style="stroke-dasharray: 1238.7px; stroke-dashoffset: 1238.7px; animation-delay:5800ms"></path>

  <path d="M7804 2135 c-129 -28 -244 -109 -387 -273 -205 -233 -404 -531 -620
-928 -78 -143 -89 -174 -62 -174 43 0 116 56 219 165 60 65 148 148 195 186
l86 69 5 -143 c5 -131 7 -147 29 -179 29 -42 79 -78 109 -78 39 0 132 38 232
95 54 30 100 55 103 55 3 0 1 -18 -4 -41 -7 -29 -6 -48 3 -67 42 -88 232 14
590 315 47 40 89 73 91 73 3 0 -6 -33 -20 -72 -26 -76 -42 -240 -29 -292 14
-55 72 -16 68 45 -4 50 38 181 96 302 58 121 149 274 177 297 8 7 15 19 15 27
0 12 -8 14 -37 8 -21 -4 -50 -14 -67 -22 -24 -13 -32 -13 -54 -1 -15 8 -58 13
-107 13 -76 0 -88 -3 -166 -42 -162 -80 -370 -260 -477 -412 -29 -41 -52 -71
-52 -68 0 4 -68 -27 -152 -69 -84 -41 -161 -74 -172 -72 -12 2 -27 16 -34 31
-17 36 -26 192 -15 277 l8 64 100 37 c113 40 224 106 256 150 24 34 35 97 20
119 -9 13 -29 5 -133 -47 -68 -34 -144 -74 -170 -89 -43 -25 -48 -25 -63 -10
-41 41 -112 -1 -122 -71 -5 -40 -11 -46 -134 -139 -71 -53 -132 -94 -136 -91
-11 12 263 465 382 632 172 241 325 356 474 359 55 1 74 -4 115 -27 l49 -27
33 21 c42 26 59 53 41 67 -22 18 -120 42 -171 41 -28 0 -78 -7 -112 -14z m657
-724 l24 -20 -90 -91 c-179 -182 -433 -374 -510 -387 -32 -5 -35 -4 -35 19 0
61 72 154 216 278 122 105 210 166 284 197 68 28 81 28 111 4z" class="svg-elem-12 handwriting" style="stroke-dasharray: 12461.8px; stroke-dashoffset: 12461.8px; animation-delay:7000ms"></path>

  </g>
</svg>